<svg width="18" height="18" viewBox="0 0 18 18" fill="none" xmlns="http://www.w3.org/2000/svg">
<path d="M11.8284 8.99996L13.2426 10.4142L16.071 7.58575C17.6331 6.02365 17.6331 3.49099 16.071 1.9289C14.509 0.3668 11.9763 0.3668 10.4142 1.9289L7.58577 4.75732L8.99998 6.17154L11.8284 3.34311C12.6095 2.56206 13.8758 2.56206 14.6568 3.34311C15.4379 4.12416 15.4379 5.39049 14.6568 6.17154L11.8284 8.99996Z" fill="black"/>
<path d="M9.00003 11.8285L10.4142 13.2427L7.58581 16.0711C6.02372 17.6332 3.49106 17.6332 1.92896 16.0711C0.366861 14.509 0.366861 11.9764 1.92896 10.4143L4.75739 7.58583L6.1716 9.00004L3.34317 11.8285C2.56212 12.6095 2.56212 13.8758 3.34317 14.6569C4.12422 15.4379 5.39055 15.4379 6.1716 14.6569L9.00003 11.8285Z" fill="black"/>
<path d="M11.8285 7.58568C12.219 7.19516 12.219 6.56199 11.8285 6.17147C11.4379 5.78094 10.8048 5.78094 10.4142 6.17147L6.1716 10.4141C5.78107 10.8046 5.78107 11.4378 6.1716 11.8283C6.56212 12.2188 7.19529 12.2188 7.58581 11.8283L11.8285 7.58568Z" fill="black"/>
</svg>
